# xmcd
# Copyright (C) 1995-1998 Ti Kan
#
# Track frame offsets:
#       150
#       14295
#       29020
#       37245
#       51895
#       65485
#       79090
#       93427
#       108790
#       116457
#       131605
#       142517
#       156800
#       168245
#       182835
#       192885
#       207965
#       222820
#       236455
#       245045
#       252945
#       270657
#       283007
#       295357
#
# Disc length: 4178 seconds
#
# Revision: 0
# Processed by: cddbd v1.5.2PL0 Copyright (c) Steve Scherf et al.
# Submitted via: CD-Import v1.0
#
DISCID=5c105018
DTITLE=Pavement - Slanted and Enchanted: Luxe and Reduxe
DYEAR=02
DGENRE=
TTITLE0=Texas Never Whispers
TTITLE1=Frontwards
TTITLE2=Lions (Linden)
TTITLE3=Shoot The Singer (1 Sick Verse)
TTITLE4=Sue Me Jack
TTITLE5=So Stark (You're A Skyscraper)
TTITLE6=Greenlander
TTITLE7=Rain Ammunition (Peel)
TTITLE8=Drunks With Guns (Peel)
TTITLE9=Ed Ames (Peel)
TTITLE10=The List Of Dorms (Peel)
TTITLE11=Conduit For Sale (Live)
TTITLE12=Fame Throwa (Live)
TTITLE13=Ome (Live)
TTITLE14=Perfume-V (Live)
TTITLE15=Summer Babe (Live)
TTITLE16=Frontwards (Live)
TTITLE17=Angel Carver Blues - Mellow Jazz Docent (Live)
TTITLE18=Two States (Live)
TTITLE19=No Life Singed Her (Live)
TTITLE20=So Stark (Live)
TTITLE21=Box Elder (Live)
TTITLE22=Baby Yeah (Live)
TTITLE23=In The Mouth A Desert (Live)
EXTD=
EXTT0=
EXTT1=
EXTT2=
EXTT3=
EXTT4=
EXTT5=
EXTT6=
EXTT7=
EXTT8=
EXTT9=
EXTT10=
EXTT11=
EXTT12=
EXTT13=
EXTT14=
EXTT15=
EXTT16=
EXTT17=
EXTT18=
EXTT19=
EXTT20=
EXTT21=
EXTT22=
EXTT23=
PLAYORDER=
